<svg width="156" height="156" viewBox="0 0 156 156" fill="none" xmlns="http://www.w3.org/2000/svg">
<g filter="url(#filter0_d_62_29)">
<g filter="url(#filter1_d_62_29)">
<path d="M28.3335 53.5324C28.2173 52.7691 28.7419 52.0561 29.5052 51.9398V51.9398C30.2686 51.8236 30.9816 52.3482 31.0978 53.1116L38.9587 104.746C39.0749 105.51 38.5503 106.223 37.7869 106.339V106.339C37.0236 106.455 36.3105 105.931 36.1943 105.167L28.3335 53.5324Z" fill="white"/>
<path d="M90.7093 103.928C91.4815 103.928 92.1074 104.554 92.1074 105.326V105.326C92.1074 106.098 91.4815 106.724 90.7093 106.724L38.4796 106.724C37.7074 106.724 37.0815 106.098 37.0815 105.326V105.326C37.0815 104.554 37.7074 103.928 38.4796 103.928L90.7093 103.928Z" fill="white"/>
</g>
<circle cx="71.9591" cy="72.8571" r="19" transform="rotate(-45 71.9591 72.8571)" stroke="white" stroke-width="9"/>
</g>
<path d="M106.819 99.219C106.842 99.9908 106.235 100.635 105.464 100.659V100.659C104.692 100.682 104.047 100.075 104.024 99.3036L102.444 47.0977C102.421 46.3259 103.028 45.6813 103.8 45.658V45.658C104.571 45.6346 105.216 46.2413 105.239 47.0131L106.819 99.219Z" fill="white"/>
<path d="M50.9724 41.6722C50.2059 41.5791 49.6599 40.8823 49.753 40.1158V40.1158C49.8461 39.3492 50.5429 38.8033 51.3094 38.8964L103.158 45.1921C103.925 45.2852 104.471 45.982 104.378 46.7485V46.7485C104.285 47.515 103.588 48.061 102.821 47.9679L50.9724 41.6722Z" fill="white"/>
<defs>
<filter id="filter0_d_62_29" x="0.332075" y="0.732178" width="155.496" height="155.496" filterUnits="userSpaceOnUse" color-interpolation-filters="sRGB">
<feFlood flood-opacity="0" result="BackgroundImageFix"/>
<feColorMatrix in="SourceAlpha" type="matrix" values="0 0 0 0 0 0 0 0 0 0 0 0 0 0 0 0 0 0 127 0" result="hardAlpha"/>
<feOffset dy="0.209185"/>
<feGaussianBlur stdDeviation="0.104592"/>
<feComposite in2="hardAlpha" operator="out"/>
<feColorMatrix type="matrix" values="0 0 0 0 0 0 0 0 0 0 0 0 0 0 0 0 0 0 0.25 0"/>
<feBlend mode="normal" in2="BackgroundImageFix" result="effect1_dropShadow_62_29"/>
<feBlend mode="normal" in="SourceGraphic" in2="effect1_dropShadow_62_29" result="shape"/>
</filter>
<filter id="filter1_d_62_29" x="27.7944" y="51.4007" width="64.836" height="55.8463" filterUnits="userSpaceOnUse" color-interpolation-filters="sRGB">
<feFlood flood-opacity="0" result="BackgroundImageFix"/>
<feColorMatrix in="SourceAlpha" type="matrix" values="0 0 0 0 0 0 0 0 0 0 0 0 0 0 0 0 0 0 127 0" result="hardAlpha"/>
<feOffset/>
<feGaussianBlur stdDeviation="0.261481"/>
<feComposite in2="hardAlpha" operator="out"/>
<feColorMatrix type="matrix" values="0 0 0 0 0 0 0 0 0 0 0 0 0 0 0 0 0 0 0.71 0"/>
<feBlend mode="normal" in2="BackgroundImageFix" result="effect1_dropShadow_62_29"/>
<feBlend mode="normal" in="SourceGraphic" in2="effect1_dropShadow_62_29" result="shape"/>
</filter>
</defs>
</svg>
